<?xml version="1.0" encoding="UTF-8"?><svg version="1.1" xmlns="http://www.w3.org/2000/svg" xmlns:xlink="http://www.w3.org/1999/xlink" viewBox="0 0 1600 1200" width="1600" height="1200">
              
              <!-- ITEM 0 -->
<g>
    <defs>
        
        <clipPath id="clip-path-id-viewbox-item-0">
            <rect x="0.0" y="0.0" width="50.3" height="62.0"/>
        </clipPath>
    </defs>
    <g transform="translate(1471.0 826.0) rotate(0.0 -110.0 136.5) scale(-4.3737574552683895 4.403225806451613)">
        <g clip-path="url(#clip-path-id-viewbox-item-0)" transform="translate(-0.0 -0.0)">


<g>
	<path d="M36.5,41.2c-6.4-0.7-12.7,1.1-17.7,5.1c0.6-5.6,2.6-11.1,5.7-15.9c1-1.6-1.5-3.1-2.5-1.5   c-2.6,3.9-4.4,8.3-5.4,12.8c-2.5-6.6-7.6-12-14-14.9c-0.9-0.4-1.8-0.1-2.2,0.9c-1.6,4.9,1,10.2,3.9,14.1c2.9,3.9,6.7,7,11.1,9   c0.1,0,0.2,0.1,0.2,0.1c0,3.4,0.5,6.8,1.5,10.2c0.5,1.8,3.3,1,2.8-0.8c-0.9-3-1.3-6.1-1.4-9.1c7,2.6,15.7-1.3,19.1-7.7   C38.4,42.3,37.6,41.3,36.5,41.2z" style="fill:#c2d674;"/>
	<path d="M40.5,17.3c1.8-0.9,3.5-1.9,4.5-3.6c1.1-1.8,1.4-4.4,0-6.1c-2.9-3.8-8.6-1.1-12.2,1.9c-0.6-4.7-3-10.5-8.1-9.2   c-6.2,1.6-4.7,8.2-4.1,13.3c-4.6-2.3-11.5-3-13.1,2.7C5.7,22.1,13,23.7,18.5,24c-2.8,2.6-4.8,6-2.4,9.7c1.4,2.1,4.1,2.8,6.5,2.2   c1.8-0.5,3.2-1.6,4.4-3c1.2,3.4,3.7,6.6,7.8,5.3c3.7-1.2,4.8-4.4,4.5-7.6c3.3,1.5,7.5,1.3,9.9-1.7C53.1,24,45.5,19.6,40.5,17.3z" style="fill:#ECECEC;"/>
	<path d="M24.9,13.6c-0.3,0.3-0.6,0.7-0.8,1.1c-0.7,0.8-1.3,1.7-1.7,2.8c-0.7,2-0.5,4.2,0.5,5.9   c0.7,2.3,2.5,4.2,5.4,4.5c4.3,0.5,7.1-2.5,7.9-6.2c0.5-1,0.8-2.1,0.8-3.3C37.5,11.6,29.4,8.3,24.9,13.6z" style="fill:#F7D06F;"/>
	<path d="M15.6,45.1c-4.8-5.8-8.9-12-12.3-18.6c-0.9-1.7-3.4-0.2-2.5,1.5c3.6,6.9,7.8,13.3,12.8,19.2   C14.8,48.7,16.8,46.6,15.6,45.1z" style="fill:#7dba37;"/>
	<path d="M36.3,41.5c-5.3,1.7-10.6,3.6-15.8,5.6c-1.7,0.7-1,3.5,0.8,2.8c5.2-2,10.5-3.9,15.8-5.6   C38.9,43.8,38.1,40.9,36.3,41.5z" style="fill:#7dba37;"/>
</g>

        </g>
    </g>
</g>

              </svg>