<?xml version="1.0" encoding="UTF-8"?><svg version="1.1" xmlns="http://www.w3.org/2000/svg" xmlns:xlink="http://www.w3.org/1999/xlink" viewBox="0 0 1600 1200" width="1600" height="1200">
              
              <!-- ITEM 0 -->
<g>
    <defs>
        
        <clipPath id="clip-path-id-viewbox-item-0">
            <rect x="0.0" y="0.0" width="140.903" height="119.431"/>
        </clipPath>
    </defs>
    <g transform="translate(1257.0 889.0) rotate(0.0 124.0 105.5) scale(1.760076080708005 1.7667104855523272)">
        <g clip-path="url(#clip-path-id-viewbox-item-0)" transform="translate(-0.0 -0.0)">

<g>
	<path style="fill:#E09563;" d="M46.342,29.883c0,0-13.548,91.026,20.32,87.947c30.41-1.067,9.788-66.664-2.671-91.062   S46.342,29.883,46.342,29.883z"/>
	<path style="fill:#A55350;" d="M0,40.989c0,0,13.46-38.521,52.962-40.828s58.462,20.727,60.198,34.277   C115.902,55.838,2.219,67.258,0,40.989z"/>
	<path style="fill:#E09563;" d="M117.349,67.904c0,0,8.224,49.21-10.754,47.665c-22.784-1.854-6.103-35.749,0.872-49.409   C114.443,52.5,117.349,67.904,117.349,67.904z"/>
	<path style="fill:#A55350;" d="M140.903,81.359c0,0-6.958-21.232-26.633-22.764c-19.675-1.532-28.956,10.982-29.729,18.407   C83.321,88.729,139.975,95.762,140.903,81.359z"/>
	<path style="fill:#D14242;" d="M51.38,119.224c0,0-10.398-3.517-14.854-12.619s9.655-1.448,9.655-1.448s-7.18-9.516-10.15-19.446   c-2.971-9.93,12.874,1.655,18.073,12.412c-1.733-5.792,3.466-20.687,9.408-5.172s4.951,17.998,4.951,17.998s-1.485-10.344,0-16.55   c1.485-6.206,12.626,3.103,8.417,25.032C70.938,119.224,51.38,119.224,51.38,119.224z"/>
	<path style="fill:#D14242;" d="M124.424,118.946c0,0,7.724-4.207,9.441-9.256s-9.269,0.14-11.158,2.104   c6.351-8.975,4.806-21.316-8.583-3.506c0.515-2.945-3.09-9.817-8.068-1.262c-4.978,8.554-3.433,5.329-3.433,5.329   s2.06-6.591,1.373-11.079c-0.687-4.488-9.441,3.646-10.643,11.64c-0.343-7.152-5.493-7.573-7.21-1.823   c0,0,2.403-26.084-3.09-16.688s-6.18,24.962-6.18,24.962L124.424,118.946z"/>
</g>

        </g>
    </g>
</g>

              </svg>