<?xml version="1.0" encoding="UTF-8"?><svg version="1.1" xmlns="http://www.w3.org/2000/svg" xmlns:xlink="http://www.w3.org/1999/xlink" viewBox="0 0 1600 1200" width="1600" height="1200">
              
              <!-- ITEM 0 -->
<g>
    <defs>
        
        <clipPath id="clip-path-id-viewbox-item-0">
            <rect x="0.0" y="0.0" width="303.878" height="116.241"/>
        </clipPath>
    </defs>
    <g transform="translate(1151.0 949.0) rotate(0.0 196.0 75.5) scale(1.2899913781188503 1.2990253008835093)">
        <g clip-path="url(#clip-path-id-viewbox-item-0)" transform="translate(-0.0 -0.0)">

<g>
	<path style="fill:#D14242;" d="M122.654,2.927c-6.773-4.976-17.237-4.244-20.399,7.186c-4.133-2.064-8.62-4.021-13.425-5.72   c-0.519-0.179-1.092,0.09-1.276,0.61c-0.184,0.52,0.089,1.092,0.61,1.276c4.669,1.651,9.032,3.55,13.055,5.551   c-8.717,6.735-4.204,15.225-0.04,19.099c11.329,9.818,23.823,3.007,36.081,8.391C137.26,39.32,141.354,16.664,122.654,2.927z"/>
	<path style="fill:#D14242;" d="M158.026,66.312c-7.744,3.095-18.429,12.385-9.673,26.302c-6.576,0.619-13.573,0.913-20.862,0.699   c-0.552-0.016-1.013,0.419-1.029,0.97c-0.015,0.499,0.339,0.924,0.814,1.012c0.051,0.009,0.102,0.015,0.156,0.017   c7.41,0.217,14.523-0.085,21.208-0.719c-1.993,17.464,11.917,24.079,23.792,20.863c32.503-8.804,38.823-41.612,38.823-41.612   C191.845,74.713,178.501,58.955,158.026,66.312z"/>
	<path style="fill:#D14242;" d="M303.006,58.511c-3.829-0.498-8.666,0.218-13.734,1.545c-2.66-11.648-13.293-19.151-23.661-22.933   c3.209,9.398-12.192,5.092-12.192,5.092s6.612,7.261-0.448,10.926c5.285,0.656,8.742,2.076,8.441,6.498   c-0.301,4.421-5.433,5.848-13.357,9.158c0.255,0.61,1.836,7.824-3.751,11.589c7.57-2.446,9.406,5.379,9.406,5.379   s13.313-6.986,16.613-4.791c3.966,2.639,0.262,9.198,0.262,9.198c3.96,1.584,6.783,3.531,5.648,8.38   c4.35-4.575,9.191-8.85,12.346-3.008c9.209-11.524,8.366-22.824,1.09-33.388c-0.006-0.042-0.017-0.081-0.023-0.122   c4.889-1.299,9.515-2.006,13.105-1.54c0.547,0.071,1.049-0.315,1.12-0.863C303.94,59.084,303.585,58.572,303.006,58.511z"/>
	<path style="fill:#D14242;" d="M17.436,114.147c4.308-2.809,8.589-7.721,12.573-13.451c12.775,9.495,30.037,7.891,43.811,2.749   c-11.384-6.741,7.941-15.708,7.941-15.708s-12.981-1.632-9.002-11.454c-5.921,3.91-10.651,5.463-14.172,0.725   c-3.521-4.739,0.441-10.625,5.602-20.836c-0.785-0.397-8.631-6.335-6.231-14.984c-5.55,9.028-14.181,2.693-14.181,2.693   s-7.437,18.598-12.68,19.23c-6.301,0.759-8.225-9.089-8.225-9.089c-5.381,1.823-9.926,2.294-12.973-3.6   C9.454,58.82,8.251,67.339,0,64.153C0.646,83.796,11.28,94.51,27.791,98.912c0.042,0.037,0.087,0.067,0.129,0.104   c-3.827,5.548-7.901,10.266-11.94,12.901c-0.616,0.401-0.79,1.227-0.387,1.843C15.994,114.375,16.797,114.585,17.436,114.147z"/>
</g>

        </g>
    </g>
</g>

              </svg>